<svg width="1440" height="770" viewBox="0 0 1440 770" fill="none" xmlns="http://www.w3.org/2000/svg">
<path fill-rule="evenodd" clip-rule="evenodd" d="M738.989 29.3043C737.645 30.4795 736.392 31.8527 735.145 33.1323C734.058 34.3941 732.892 35.5854 731.653 36.6989C709.488 56.9451 685.872 68.0627 665.302 68.0627C644.933 68.0627 627.71 57.7596 614.124 37.4658C606.576 26.0454 600.898 13.4939 597.305 0.28441H598.003C601.602 13.346 607.211 25.7683 614.628 37.1058C628.157 57.1482 645.185 67.3995 665.302 67.3995C685.721 67.3995 709.135 56.2812 731.254 36.2388C732.399 35.168 733.498 33.946 734.694 32.6722C735.942 31.3457 737.24 30.0193 738.539 28.7455C748.475 19.8674 759.157 11.7109 769.494 3.80424C771.043 2.6348 772.541 1.51145 774.085 0.28441H775.184C773.435 1.66339 771.641 2.98981 769.842 4.36807C759.511 12.269 748.877 20.4312 738.989 29.3043ZM1396.71 95.0404C1382.33 81.3744 1367.45 67.1964 1357.91 46.9502C1353.12 36.6471 1348.37 20.3787 1346.18 0.288011H1346.87C1349.02 20.2836 1353.77 36.4462 1358.51 46.6975C1367.95 66.7399 1382.77 80.866 1397.15 94.5327C1413.88 110.441 1431.15 126.812 1439.69 152.719C1439.99 153.484 1440.24 154.267 1440.44 155.065V157.362C1440.04 155.832 1439.54 154.349 1439.09 152.976C1430.56 127.22 1413.33 110.848 1396.71 95.0404H1396.71ZM670.19 36.547C663.156 36.547 656.316 34.0454 650.023 29.1523C644.134 24.6157 641.239 19.9718 638.186 15.1781C636.941 13.1367 635.594 11.0477 634.046 8.90612C632.859 6.09603 631.842 3.21691 631.001 0.28441H631.699C632.549 3.09278 633.499 5.84571 634.594 8.49926C636.09 10.5301 637.474 12.6412 638.741 14.8231C641.736 19.6168 644.63 24.103 650.369 28.5885C656.669 33.4347 663.257 35.8838 670.19 35.8838C688.716 35.8838 706.493 19.053 722.165 4.26366C723.611 2.89044 724.961 1.61083 726.357 0.28441H727.359C725.81 1.76781 724.263 3.19288 722.666 4.72308C706.889 19.6636 688.968 36.547 670.19 36.547ZM1428.31 214.425C1424.96 196.779 1421.86 180.105 1417.07 168.324C1408.99 148.233 1392.16 131.35 1374.39 113.449C1363.4 102.488 1352.12 91.1655 1342.59 78.6683C1330.66 63.1142 1322.67 49.6542 1315.98 33.7422C1312.03 24.3579 1308.63 13.5479 1305.34 3.0935C1305.04 2.17466 1304.69 1.20325 1304.44 0.28513H1305.14C1305.39 1.14925 1305.69 2.01912 1305.99 2.89116C1309.24 13.3405 1312.63 24.1556 1316.58 33.488C1323.26 49.3481 1331.2 62.7585 1343.13 78.2636C1352.67 90.6557 1363.95 102.027 1374.84 112.943C1392.71 130.946 1409.59 147.874 1417.72 168.069C1422.51 179.902 1425.66 196.629 1428.96 214.327C1432.15 231.362 1435.45 249.002 1440.34 261.853C1440.39 261.948 1440.43 262.053 1440.44 262.162V263.947C1440.22 263.322 1439.97 262.709 1439.69 262.109C1434.75 249.157 1431.45 231.511 1428.31 214.425ZM1373.79 434.33C1350.57 443.814 1321.72 455.543 1310.68 479.565C1309.93 492.671 1314.43 503.837 1319.22 515.619C1325.96 532.141 1333.6 550.858 1329.31 580.133C1326.01 602.364 1313.23 616.647 1298.4 633.17C1292.26 640 1286.02 647.04 1280.03 655.045C1264.4 676.06 1253.72 699.773 1245.43 720.225C1237.09 740.568 1230.56 756.633 1208.68 761.991C1195.61 765.202 1177.33 767.449 1164.8 768.774C1158.44 769.509 1152.04 769.898 1145.63 769.941C1135.99 769.941 1127.71 768.875 1120.72 766.787C1105.89 762.293 1096.45 749.951 1084.57 734.346C1081.03 729.709 1077.39 724.964 1073.24 719.915C1070.44 716.448 1066.75 712.672 1062.8 708.594C1054.61 700.181 1046.18 691.46 1043.83 684.47C1042.98 681.77 1043.24 679.321 1043.43 676.517C1043.72 674.095 1043.77 671.653 1043.58 669.222L1043.53 669.07L1043.63 668.969C1051.57 658.264 1061.21 649.694 1070.54 641.328C1086.37 627.155 1101.4 613.792 1107.04 591.811C1110.03 580.234 1108.93 567.841 1103.74 553.919C1098.2 539.235 1085.32 523.067 1067.35 508.481C1059.26 501.902 1050.67 495.071 1041.59 487.775C999.901 454.579 952.619 416.942 926.806 384.147L926.761 383.943C925.912 379.917 926.209 375.327 927.359 370.277C930.702 356.506 941.239 340.139 956.315 325.35C970.691 311.323 987.02 300.816 1000.05 297.145C1001.1 296.842 1003.15 296.281 1005.34 295.819C1022.71 291.845 1040.74 294.595 1058.11 297.25C1073.14 299.542 1087.42 301.736 1101.25 299.903C1131.15 295.87 1152.67 275.419 1160.26 243.801C1170.25 202.29 1142.63 176.231 1115.93 150.987C1096.25 132.323 1075.84 113.095 1070.5 87.6997C1065.4 63.7824 1072.04 37.9742 1076.44 20.8928C1078.18 14.0051 1080.33 7.12172 1082.63 0.285851H1083.33C1080.98 7.17356 1078.89 14.1117 1077.09 21.0966C1072.74 38.0793 1066.1 63.7824 1071.15 87.5442C1076.44 112.741 1096.76 131.916 1116.43 150.476C1143.23 175.824 1170.99 202.035 1160.91 243.958C1153.27 275.829 1131.46 296.483 1101.3 300.515C1087.42 302.347 1073.15 300.206 1058.02 297.914C1040.69 295.261 1022.77 292.556 1005.49 296.483C1003.35 296.942 1001.25 297.506 1000.2 297.809C974.339 305.053 935.198 340.751 928.058 370.382C926.854 374.73 926.616 379.289 927.36 383.739C953.173 416.482 1000.35 454.118 1041.99 487.263C1051.13 494.506 1059.71 501.342 1067.8 507.917C1085.82 522.607 1098.8 538.822 1104.34 553.715C1109.58 567.741 1110.68 580.233 1107.69 591.962C1101.95 614.145 1086.92 627.661 1071 641.891C1061.71 650.152 1052.17 658.717 1044.23 669.276C1044.41 671.704 1044.37 674.143 1044.14 676.566C1043.83 679.323 1043.63 681.668 1044.48 684.216C1046.78 691.052 1055.12 699.77 1063.31 708.134C1067.2 712.167 1070.95 715.988 1073.74 719.456C1077.88 724.452 1081.58 729.249 1085.12 733.943C1096.96 749.44 1106.29 761.681 1120.92 766.124C1132.05 769.487 1146.38 770.149 1164.71 768.112C1177.29 766.729 1195.51 764.49 1208.54 761.328C1230.06 756.129 1236.59 740.165 1244.83 719.967C1253.17 699.465 1263.8 675.699 1279.48 654.583C1285.47 646.577 1291.76 639.543 1297.86 632.707C1312.63 616.284 1325.36 602.058 1328.61 580.026C1332.9 550.96 1325.31 532.342 1318.62 515.871C1313.83 503.99 1309.24 492.769 1309.99 479.458L1310.03 479.306C1321.22 455.08 1350.23 443.2 1373.54 433.763C1379.88 431.163 1386.42 428.507 1393.56 426.933C1408.97 423.495 1424.66 421.413 1440.44 420.711V421.427C1424.71 422.087 1409.07 424.153 1393.71 427.599C1386.62 429.129 1380.08 431.777 1373.79 434.33ZM1035.15 20.1238C1033.35 27.1634 1031.25 34.2031 1029.21 41.0858C1024.81 56.2301 1020.67 70.5593 1019.02 83.3647C1017.77 92.4927 1017.77 101.924 1018.97 108.504C1022.42 128.291 1035.44 143.691 1048.03 158.637C1062.46 175.718 1077.39 193.469 1078.53 218.097C1076.98 240.029 1052.77 243.241 1027.16 246.557C1022.46 247.22 1017.57 247.832 1012.88 248.594C994.11 251.654 972.49 257.775 950.375 266.237C942.635 269.245 935.196 272.968 927.957 276.592C914.179 283.577 901.148 290.206 885.918 291.94C883.945 292.147 881.962 292.25 879.977 292.249C869.645 292.249 860.658 289.288 852.969 286.484C845.183 283.679 838.491 280.671 832.003 277.663C818.073 271.391 804.944 265.475 784.673 263.636C781.041 263.246 777.391 263.059 773.738 263.078C751.72 263.078 733.3 268.995 715.428 274.702C700.049 279.7 685.425 284.342 670.298 284.342C667.342 284.364 664.387 284.177 661.457 283.783C638.489 280.822 620.82 268.686 607.536 246.602C595.8 227.123 589.068 202.49 583.423 178.776C581.774 171.841 578.88 158.838 577.886 149.401C576.885 140.529 578.232 134.054 582.077 129.562C589.017 121.353 602.942 120.841 619.07 120.334C626.414 120.079 633.945 119.823 641.484 118.805C673.243 114.622 699.847 110.439 729.307 97.843C753.571 87.5398 777.835 74.6408 793.958 65.7159C821.016 50.5687 851.671 31.8527 873.288 0.28441H874.085C852.368 32.1609 821.566 51.1325 794.256 66.3294C778.178 75.3061 753.915 88.1577 729.6 98.5083C700.096 111.052 673.384 115.287 641.582 119.517C634.043 120.489 626.455 120.741 619.118 121.047C603.141 121.559 589.31 122.019 582.52 130.024C578.877 134.358 577.531 140.681 578.524 149.351C579.575 158.736 582.419 171.692 584.068 178.627C595.25 225.799 611.327 276.694 661.555 283.122C664.455 283.47 667.374 283.638 670.295 283.626C685.315 283.626 699.844 278.989 715.274 274.038C733.149 268.331 751.619 262.414 773.738 262.414C777.383 262.414 781.082 262.565 784.719 262.918C805.095 264.756 818.271 270.772 832.249 277.096C838.742 280.005 845.428 283.065 853.168 285.869C860.806 288.622 869.794 291.53 879.977 291.53C881.929 291.531 883.88 291.429 885.821 291.222C900.897 289.54 913.877 282.961 927.653 276.028C934.892 272.356 942.336 268.582 950.122 265.626C972.288 257.111 993.96 250.99 1012.73 247.929C1017.47 247.166 1022.37 246.503 1027.06 245.939C1052.37 242.576 1076.34 239.412 1077.88 218.048C1076.73 193.77 1061.85 176.124 1047.53 159.042C1034.84 144.101 1021.81 128.545 1018.27 108.654C1017.07 101.974 1017.17 92.4905 1018.32 83.2581C1020.02 70.354 1024.21 56.0767 1028.61 40.9324C1030.6 34.0447 1032.65 26.9056 1034.55 19.9185C1035.74 15.3819 1036.99 10.738 1038.29 6.25184C1038.84 4.31407 1039.34 2.27259 1039.94 0.28297H1040.64C1040.04 2.37701 1039.44 4.41344 1038.94 6.45563C1037.64 10.9454 1036.39 15.5332 1035.15 20.1238ZM1393.91 45.6231C1387.12 34.8656 1381.03 21.9096 1380.93 0.28441H1381.58C1381.73 21.7058 1387.72 34.6099 1394.46 45.2681C1403.05 58.7828 1415.43 66.8882 1428.61 75.5121C1432.55 78.1123 1436.54 80.7133 1440.44 83.5174V84.3325C1436.44 81.4759 1432.3 78.7756 1428.25 76.1234C1415.08 67.452 1402.6 59.2898 1393.91 45.6231ZM991.411 61.4306C987.368 70.7155 983.124 80.1992 981.729 90.1423C977.782 117.376 991.559 135.076 1004.84 152.26C1013.98 163.937 1022.51 174.956 1025.16 188.521C1025.69 191.227 1025.8 193.995 1025.51 196.736C1025.41 198.161 1025.31 199.688 1025.31 201.78V201.885C1021.92 211.524 1011.78 218.308 1003.84 222.283C975.188 236.769 928.504 243.598 894.456 248.597C889.313 249.332 884.125 249.707 878.93 249.72C865.699 249.72 853.419 247.427 840.439 245.031C826.559 242.476 812.183 239.774 795.604 239.774C791.212 239.774 786.718 239.978 782.378 240.333C781.478 240.437 778.978 240.588 775.783 240.792C771.09 241.048 765.199 241.356 761.059 241.712C747.179 242.782 736.193 245.283 725.611 247.727C711.432 250.944 698.155 253.999 678.427 253.999C676.382 253.999 674.237 253.952 672.091 253.9C656.417 251.398 642.031 234.521 636.293 211.877C631.555 193.161 632.65 168.272 649.922 154.507C670.241 138.338 729.455 124.16 761.259 121.559C768.048 120.949 773.687 120.896 779.131 120.896C785.22 120.844 791.463 120.797 799.651 120.082C821.573 118.039 839.691 109.22 860.314 90.5578C885.825 67.4024 899.654 49.5008 919.426 14.0584C921.808 9.64485 923.81 5.03695 925.411 0.28441H926.163C924.501 5.14456 922.43 9.85463 919.971 14.3637C900.197 49.9026 886.368 67.8071 860.71 91.0611C840.04 109.83 821.768 118.703 799.699 120.744C791.514 121.507 785.22 121.559 779.131 121.559C773.436 121.611 768.1 121.663 761.305 122.222C729.603 124.875 670.594 138.949 650.275 155.065C633.298 168.579 632.297 193.212 636.941 211.725C642.586 234.06 656.813 250.734 672.192 253.236C674.287 253.288 676.382 253.335 678.427 253.335C698.004 253.335 711.382 250.228 725.463 247.063C736.096 244.619 747.077 242.118 761.008 241.048C765.15 240.739 771.044 240.332 775.737 240.076C778.932 239.924 781.425 239.773 782.327 239.721C786.739 239.287 791.17 239.083 795.604 239.11C812.229 239.11 826.661 241.763 840.536 244.367C853.521 246.763 865.75 249.003 878.93 249.003C884.092 249.036 889.25 248.678 894.359 247.933C928.356 242.936 974.985 236.152 1003.54 221.671C1011.33 217.796 1021.32 211.117 1024.61 201.68C1024.66 199.639 1024.76 198.108 1024.81 196.683C1025.18 194 1025.08 191.274 1024.51 188.625C1021.87 175.314 1013.38 164.3 1004.34 152.67C990.915 135.432 977.081 117.582 981.079 90.0458C982.526 80.0508 986.718 70.4102 990.813 61.1829C992.408 57.5587 994.11 53.7882 995.558 50.0128C1000.8 36.6989 1006.94 18.7945 1010.83 0.28441H1011.48C1007.53 18.9018 1001.39 36.9546 996.155 50.3181C994.709 54.0359 993.057 57.8121 991.411 61.4306ZM1371.24 336.462C1362 325.96 1353.82 314.737 1345.13 302.909C1331.35 284.14 1317.12 264.761 1298.75 248.75C1297.45 247.526 1296.16 246.196 1294.95 244.87C1293.86 243.646 1292.66 242.426 1291.46 241.303C1279.48 230.488 1265.75 221.82 1252.52 213.511C1243.33 207.694 1233.8 201.73 1224.86 194.998C1217.77 189.64 1210.63 184.032 1203.79 178.627C1193.36 170.365 1182.57 161.9 1171.69 154.249C1166.55 150.631 1161.21 147.158 1155.51 143.487C1127.76 125.387 1096.3 104.885 1091.51 67.8049C1088.96 48.2183 1094.01 22.9775 1104.74 0.28225H1105.44C1094.7 22.9257 1089.66 48.1686 1092.16 67.7552C1096.95 104.524 1128.25 124.931 1155.91 142.876C1161.55 146.549 1166.89 150.067 1172.04 153.64C1182.97 161.337 1193.75 169.854 1204.14 178.064C1211.03 183.474 1218.12 189.081 1225.31 194.435C1234.2 201.114 1243.68 207.135 1252.87 212.896C1266.15 221.313 1279.88 229.982 1291.86 240.792C1293.16 241.915 1294.31 243.24 1295.46 244.416C1296.63 245.747 1297.88 247.006 1299.2 248.187C1317.63 264.25 1331.9 283.682 1345.63 302.45C1354.32 314.33 1362.56 325.5 1371.74 335.955C1389.69 356.487 1413.78 370.687 1440.44 376.448V377.158C1413.61 371.34 1389.36 357.077 1371.24 336.462ZM1412.18 310.048C1403.24 296.736 1403.19 272.563 1404.14 252.98C1404.89 237.173 1404.64 206.983 1394.51 181.89C1386.67 162.715 1368.1 145.628 1350.12 129.21C1347.38 126.661 1344.68 124.16 1342.03 121.663C1306.03 88.1577 1288.16 58.0152 1272.44 23.1835C1271.09 20.2311 1269.94 17.0626 1268.79 14.003C1267.42 10.0974 1265.83 6.26761 1264.05 2.52967C1263.7 1.76709 1263.3 0.999465 1262.95 0.28441H1263.7C1264 0.947618 1264.35 1.56402 1264.7 2.17466C1266.46 5.95221 1268.03 9.81692 1269.39 13.7538C1270.55 16.8142 1271.69 19.9214 1273.09 22.8825C1288.77 57.7142 1306.54 87.7523 1342.49 121.205C1345.13 123.702 1347.88 126.151 1350.57 128.652C1368.59 145.171 1387.27 162.256 1395.11 181.635C1405.29 206.827 1405.54 237.173 1404.79 252.98C1403.84 272.511 1403.94 296.533 1412.73 309.693C1419.12 319.124 1429.3 325.855 1440.44 331.621V332.383C1429.1 326.519 1418.72 319.735 1412.18 310.048H1412.18ZM1430.5 19.0004C1426.16 14.4156 1424.31 7.2715 1424.31 0.28441H1425.06C1425.06 7.17212 1426.91 14.2067 1430.95 18.546C1433.8 21.5546 1437.04 23.1871 1440.44 23.1871V23.8503C1436.9 23.8467 1433.45 22.1652 1430.5 19.0004ZM1225.41 11.0995C1234.9 22.5202 1241.84 38.1298 1248.53 53.2251C1249.57 55.5229 1250.58 57.7617 1251.57 60.061C1261.36 81.5818 1273.49 108.407 1286.77 126.712C1293.96 136.712 1305.84 143.897 1318.42 151.501C1336.24 162.259 1354.67 173.429 1361.86 193.931C1364.45 201.326 1364.5 209.43 1361.96 219.582C1359.46 225.244 1355.12 228.1 1349.13 228.1C1339.24 228.1 1327.56 220.293 1322.77 216.115C1313.23 207.901 1304.84 196.532 1296.81 185.461C1292.46 179.596 1288.02 173.429 1283.42 167.818C1281.18 165.212 1273.49 156.241 1267.05 152.366C1251.77 143.185 1232.2 136.146 1211.48 128.699C1182.67 118.402 1152.97 107.744 1134.45 90.3993C1124.56 81.3261 1118.72 67.0459 1118.22 51.3377C1117.77 34.507 1123.46 18.5475 1134.4 6.30729C1136.33 4.13604 1138.43 2.12206 1140.69 0.28441H1141.79C1139.32 2.27463 1137.02 4.45737 1134.9 6.81208C1124.04 19.0236 1118.32 34.9553 1118.92 51.2845C1119.32 66.7888 1125.16 80.9157 1134.85 89.8917C1153.32 107.078 1183.03 117.736 1211.68 128.033C1232.45 135.479 1252.02 142.519 1267.35 151.746C1273.99 155.779 1281.68 164.755 1283.87 167.403C1288.57 172.965 1293.01 179.14 1297.35 185.101C1305.39 196.068 1313.68 207.389 1323.17 215.546C1327.91 219.677 1339.44 227.428 1349.13 227.428C1354.87 227.428 1358.96 224.723 1361.36 219.318C1363.8 209.422 1363.75 201.416 1361.21 194.126C1354.12 173.88 1335.79 162.814 1318.07 152.104C1305.44 144.453 1293.51 137.21 1286.17 127.063C1272.94 108.755 1260.81 81.8756 1250.97 60.3555C1249.97 58.0627 1248.98 55.7649 1247.93 53.4728C1241.24 38.4322 1234.3 22.9278 1224.86 11.5589C1221.31 7.26713 1217.2 3.47467 1212.63 0.28441H1213.78C1218.09 3.39191 1222 7.02495 1225.41 11.0995ZM961.407 185.562L961.355 185.667C960.16 186.94 959.459 188.721 958.81 190.455L958.661 190.815L958.559 191.019C953.667 195.661 946.382 198.262 937.992 198.262C926.06 198.262 914.232 193.108 908.438 185.51C906.755 183.382 905.583 180.897 905.011 178.245C904.44 175.593 904.484 172.846 905.141 170.214C907.687 160.114 917.124 156.798 927.41 154.098L927.456 154.046L927.504 154.1C944.978 156.701 963.05 167.61 961.404 185.459V185.564L961.407 185.562ZM927.504 154.761C917.424 157.461 908.28 160.626 905.787 170.365C905.151 172.902 905.108 175.551 905.663 178.107C906.217 180.663 907.353 183.057 908.982 185.102C914.626 192.549 926.308 197.599 937.989 197.599C946.179 197.599 953.316 195.045 958.061 190.507L958.158 190.251C958.858 188.471 959.558 186.632 960.755 185.254C962.455 165.42 939.792 156.647 927.504 154.761ZM780.525 197.291L780.274 197.75L780.177 197.802C769.441 204.686 751.671 209.276 735.991 209.276C725.659 209.276 707.635 207.187 702.943 192.956V192.904C702.881 190.473 703.32 188.055 704.231 185.801C705.143 183.546 706.508 181.503 708.242 179.798C715.025 172.66 728.555 168.277 743.483 168.277C762.404 168.277 782.823 175.723 783.125 192.247V192.351L782.976 192.451C781.856 193.891 781.024 195.535 780.527 197.291H780.525ZM743.481 168.934C728.752 168.934 715.375 173.321 708.679 180.256C707.043 181.907 705.751 183.867 704.877 186.021C704.004 188.175 703.565 190.48 703.588 192.805C708.182 206.571 725.908 208.612 735.988 208.612C751.514 208.612 769.036 204.076 779.775 197.291L779.872 196.983C780.573 195.249 781.222 193.416 782.418 192.086C782.076 176.178 762.005 168.934 743.483 168.934H743.481ZM1256.02 522.961C1259.81 539.536 1263.76 556.774 1262.16 582.478C1249.52 627.203 1234.6 660.962 1216.68 685.799C1212.48 691.564 1207.34 698.138 1200.85 703.441C1191.56 711.04 1178.33 715.526 1165.6 715.526C1152.77 715.526 1141.79 711.04 1134.7 702.726C1126.81 693.598 1123.91 680.443 1126.06 663.665C1127.31 654.28 1130.66 644.384 1133.95 634.796C1137.25 625.26 1140.64 615.417 1141.84 606.038C1146.68 569.571 1131.4 531.783 1101.15 505.008C1088.32 493.582 1075.04 484.354 1062.3 475.429C1048.47 465.69 1034.2 455.643 1020.67 443.097C1000.1 424.078 976.836 402.453 972.991 369.863V369.712C975.435 354.306 980.128 338.447 997.306 327.125C1007.04 320.65 1017.82 317.642 1031.2 317.642C1042.64 317.642 1054.37 319.835 1066.85 322.128C1080.28 324.576 1094.16 327.125 1108.59 327.125C1112.13 327.125 1115.63 326.974 1118.97 326.718C1125.81 326.055 1134.45 323.913 1143.48 321.621C1155.67 318.608 1168.3 315.449 1178.28 315.449C1180.21 315.434 1182.13 315.588 1184.02 315.908C1197.5 317.996 1211.78 329.93 1222.71 340.082C1240.94 356.959 1258.11 374.553 1260.96 389.04C1262.06 394.7 1261.71 403.776 1261.01 410.354C1260.01 420.349 1257.86 428.815 1255.87 436.977C1252.32 451.557 1248.63 466.654 1250.42 490.775C1251.32 502.511 1253.57 512.506 1256.02 522.961ZM1255.22 436.827C1257.21 428.669 1259.31 420.205 1260.31 410.308C1261.01 403.728 1261.36 394.754 1260.31 389.195C1257.51 374.865 1240.39 357.371 1222.26 340.545C1211.38 330.498 1197.2 318.665 1183.92 316.523C1182.05 316.265 1180.17 316.146 1178.28 316.168C1168.35 316.168 1155.77 319.275 1143.64 322.336C1134.55 324.581 1125.91 326.722 1119.07 327.386C1115.68 327.694 1112.18 327.847 1108.59 327.845C1094.11 327.845 1080.18 325.297 1066.75 322.748C1054.27 320.503 1042.54 318.31 1031.2 318.31C1017.97 318.31 1007.29 321.317 997.605 327.694C980.685 338.911 976.087 354.515 973.643 369.868C977.487 402.151 1000.6 423.62 1021.07 442.639C1034.65 455.136 1048.88 465.131 1062.66 474.823C1075.49 483.795 1088.67 493.08 1101.6 504.553C1132.06 531.426 1147.38 569.423 1142.54 606.14C1141.29 615.573 1137.9 625.415 1134.6 635.003C1131.3 644.544 1127.91 654.434 1126.76 663.766C1124.56 680.341 1127.46 693.298 1135.25 702.322C1142.19 710.432 1152.92 714.866 1165.6 714.866C1178.18 714.866 1191.21 710.379 1200.45 702.933C1206.84 697.676 1211.98 691.105 1216.12 685.391C1234.05 660.659 1248.88 626.945 1261.51 582.327C1263.11 556.827 1259.16 539.64 1255.31 523.165C1252.87 512.611 1250.62 502.615 1249.77 490.832C1247.98 466.608 1251.62 451.464 1255.22 436.827ZM1214.28 521.228C1213.58 524.235 1213.13 527.296 1212.58 530.661C1210.78 542.39 1208.64 555.8 1196.86 562.125L1196.75 562.177H1196.66C1182.33 561.158 1173.29 548.103 1163.7 534.332C1160.26 529.439 1156.77 524.337 1152.98 519.898C1131.86 494.962 1108.04 478.439 1085.03 462.428C1068.85 451.154 1053.53 440.495 1039.99 427.596C1035.65 425.403 1032.7 421.575 1029.91 417.904C1027.76 415.152 1025.57 412.191 1022.67 409.95C1010.29 394.138 1006.2 375.625 1012.23 362.878C1016.03 354.82 1025.51 345.18 1049.18 345.18C1052.37 345.18 1055.72 345.384 1059.16 345.691C1066.76 346.459 1075.49 348.088 1084.63 349.822C1094.81 351.708 1106.35 353.855 1117.98 355.128C1120.42 355.384 1122.72 355.587 1125.02 355.891C1156.07 359.055 1174.79 361.092 1193.47 383.532C1206.74 399.595 1213.83 419.434 1215.83 446.057C1217.03 463.091 1216.08 481.755 1215.23 498.174C1214.78 506.438 1214.38 514.24 1214.28 521.228ZM1215.13 446.112C1213.18 419.64 1206.09 399.958 1192.96 384.046C1174.49 361.659 1156.91 359.873 1124.96 356.504C1122.67 356.3 1120.37 356.045 1117.92 355.794C1106.24 354.515 1094.71 352.374 1084.52 350.489C1075.39 348.807 1066.7 347.12 1059.11 346.41C1055.81 346.051 1052.49 345.863 1049.17 345.846C1025.85 345.846 1016.52 355.279 1012.78 363.189C1006.93 375.732 1010.93 393.937 1023.11 409.441C1026.01 411.739 1028.25 414.643 1030.45 417.447C1033.35 421.322 1036.05 424.894 1040.29 426.983L1040.39 427.035C1053.92 439.991 1069.25 450.65 1085.42 461.867C1108.49 477.93 1132.25 494.453 1153.47 519.494C1157.26 523.88 1160.76 528.982 1164.2 533.928C1173.69 547.542 1182.63 560.446 1196.6 561.464C1208.08 555.297 1210.03 542.701 1211.93 530.559C1212.48 527.196 1212.93 524.084 1213.58 521.126C1213.68 514.191 1214.13 506.436 1214.53 498.174C1215.38 481.758 1216.37 463.094 1215.13 446.112H1215.13ZM782.528 439.887C777.436 488.333 772.641 534.131 735.648 566.874C710.785 588.855 670.595 612.26 632.104 612.26C608.639 612.26 589.372 603.388 574.785 585.841C562.206 570.592 555.719 552.795 548.274 532.141C547.475 529.849 546.633 527.551 545.783 525.156C544.285 521.182 542.838 517.255 541.391 513.376C533.104 491.04 525.263 470.032 523.319 452.537C518.97 414.034 532.65 398.53 549.577 383.537C575.937 360.23 610.237 358.496 646.583 356.611C655.173 356.151 665.353 355.233 676.081 354.214C693.008 352.63 712.132 350.898 728.158 350.898C745.432 350.898 756.767 352.888 762.906 357.07C788.668 374.512 785.575 416.891 783.126 434.228L782.528 439.887ZM762.559 357.679C756.516 353.549 745.284 351.559 728.158 351.559C712.182 351.559 693.009 353.345 676.132 354.927C665.404 355.894 655.216 356.865 646.633 357.272C610.389 359.105 576.181 360.891 550.024 384.046C533.197 398.888 519.669 414.29 523.967 452.483C525.911 469.826 533.752 490.834 541.989 513.122C543.436 517.05 544.933 520.971 546.33 524.95C547.23 527.248 548.073 529.593 548.879 531.935C556.317 552.49 562.761 570.234 575.332 585.431C589.717 602.821 608.783 611.643 632.104 611.643C670.343 611.643 710.483 588.232 735.198 566.304C772.042 533.817 776.786 488.123 781.827 439.828L782.475 434.12C784.97 416.889 787.968 374.865 762.558 357.679H762.559ZM747.181 447.845C742.738 489.659 738.94 525.766 705.789 552.539C690.417 565.036 662.61 579.622 635.099 579.622C621.419 579.622 609.885 576.002 600.748 568.811C574.893 548.361 563.653 505.827 561.861 475.638C559.809 440.754 572.344 410.105 595.355 393.786C616.473 378.74 643.336 377.211 671.841 375.628C678.083 375.325 684.275 374.97 690.467 374.97C708.337 374.97 730.402 377.262 741.691 395.06C748.178 408.575 747.779 424.435 747.329 439.736C747.276 442.487 747.23 445.14 747.179 447.845H747.181ZM741.087 395.368C730.004 377.926 708.183 375.628 690.467 375.628C684.275 375.628 678.133 375.936 671.841 376.344C643.53 377.928 616.724 379.351 595.708 394.297C572.941 410.512 560.507 440.959 562.552 475.586C564.301 505.676 575.49 548.001 601.201 568.3C610.187 575.387 621.563 579.011 635.099 579.011C662.409 579.011 690.064 564.425 705.443 551.981C738.291 525.358 741.935 491.09 746.483 447.793C746.534 445.14 746.585 442.487 746.734 439.735C747.077 424.486 747.476 408.726 741.086 395.368H741.087ZM1154.42 441.161L1154.27 441.265C1153.28 442.006 1152.37 442.861 1151.57 443.814C1150.62 444.986 1149.47 445.987 1148.18 446.775L1148.13 446.821H1147.98C1129.06 443.407 1107.54 433.356 1091.82 420.664C1085.57 415.614 1078.28 408.726 1076.84 400.11L1076.79 399.958L1076.89 399.801C1077.83 398.548 1078.86 397.372 1079.99 396.287C1080.84 395.467 1081.64 394.702 1082.38 393.838L1082.44 393.682H1082.58C1085.54 393.373 1088.5 393.222 1091.47 393.228C1107.95 393.228 1130.42 398.324 1143.89 412.554C1151.28 420.456 1154.83 429.996 1154.43 441.01V441.162L1154.42 441.161ZM1143.39 413.014C1130.1 398.888 1107.84 393.892 1091.46 393.892C1088.56 393.886 1085.66 394.038 1082.77 394.347C1082.03 395.211 1081.23 396.033 1080.48 396.795C1079.37 397.778 1078.38 398.891 1077.53 400.111C1078.98 408.476 1086.12 415.207 1092.21 420.104C1107.84 432.752 1129.2 442.747 1147.98 446.162C1149.13 445.412 1150.16 444.483 1151.02 443.41C1151.84 442.467 1152.75 441.597 1153.72 440.809C1154.07 430.095 1150.68 420.763 1143.39 413.014ZM677.88 533.519C666.799 540.864 654.415 544.84 642.931 544.84C627.804 544.84 615.125 538.161 606.089 525.461C585.122 495.937 594.605 440.089 624.665 416.887C632.801 410.511 646.726 402.965 666.648 402.965C671.455 402.965 676.252 403.392 680.983 404.239C702 407.858 712.93 424.841 712.577 453.249C712.282 474.823 707.342 513.989 677.88 533.519ZM680.875 404.902C676.175 404.098 671.416 403.689 666.648 403.678C646.927 403.678 633.146 411.119 625.01 417.396C610.833 428.414 600.595 447.225 596.952 469.159C593.359 490.575 597.002 511.428 606.686 525.104C615.528 537.595 628.106 544.123 642.931 544.123C654.271 544.123 666.598 540.196 677.534 532.953C706.687 513.625 711.583 474.715 711.878 453.247C712.281 425.202 701.496 408.476 680.875 404.903V404.902ZM1356.42 723.898C1353.67 728.989 1351.02 733.893 1347.88 737.918L1347.73 738.069C1343.39 743.83 1336 753.422 1325.71 751.837C1314.63 750.16 1300 736.694 1302.64 716.907C1304.74 701.1 1315.12 689.522 1335.35 680.493C1336.64 679.934 1337.94 679.323 1339.29 678.759C1349.02 674.583 1358.26 670.602 1362.51 661.117C1366.9 642.354 1367.75 617.058 1368.7 590.179C1369.44 567.944 1370.25 544.896 1373.19 525.259C1378.83 487.366 1397.8 464.827 1431.21 456.206C1434.24 455.38 1437.33 454.733 1440.44 454.269V454.984C1437.37 455.432 1434.34 456.062 1431.35 456.869C1398.25 465.334 1379.43 487.774 1373.84 525.358C1370.94 544.994 1370.14 567.992 1369.35 590.228C1368.45 617.106 1367.55 642.45 1363.15 661.37C1358.76 671.163 1349.42 675.14 1339.54 679.372C1338.19 679.983 1336.89 680.49 1335.59 681.105C1315.62 689.978 1305.39 701.399 1303.34 717.008C1300.75 736.337 1314.97 749.493 1325.81 751.121C1335.69 752.655 1342.93 743.272 1347.23 737.706L1347.38 737.554C1350.47 733.479 1353.12 728.683 1355.86 723.584C1364.5 707.624 1373.44 691.101 1399 695.435C1411.08 697.428 1424.66 704.003 1440.44 715.377V716.241C1424.56 704.719 1410.98 698.089 1398.9 696.099C1373.79 691.868 1364.95 708.186 1356.42 723.898ZM1423.86 633.426C1409.08 616.798 1401.2 592.217 1402.2 565.903C1403.2 540.556 1412.48 517.405 1427.06 503.89C1431.07 500.909 1435.61 498.728 1440.44 497.467V498.125C1435.79 499.408 1431.41 501.516 1427.51 504.349C1413.03 517.815 1403.85 540.811 1402.85 565.903C1401.85 592.014 1409.69 616.495 1424.32 633.016C1429.15 638.308 1434.56 643.047 1440.44 647.144V647.959C1434.34 643.813 1428.77 638.932 1423.86 633.426ZM824.013 637.861C824.661 633.324 826.707 627.866 828.405 623.531C842.483 587.733 875.535 550.196 899.548 528.982C916.025 514.443 929.705 505.931 940.19 503.785C942.568 503.265 944.996 503.01 947.43 503.023C976.086 503.023 1011.28 532.805 1013.48 558.916C1013.35 560.213 1013.1 561.495 1012.73 562.743C1012.33 564.681 1011.83 566.618 1012.03 568.707V568.811L1011.98 568.859C1002.16 592.568 990.643 615.541 977.531 637.604C971.843 647.191 966.1 656.371 958.559 664.074C940.339 682.687 908.586 695.742 881.527 695.742C866.551 695.742 854.017 691.867 844.284 684.373C828.006 671.772 821.165 656.116 824.013 637.861ZM881.527 695.033C908.438 695.033 939.941 682.077 958.063 663.565C965.551 655.966 971.294 646.786 976.984 637.302C990.039 615.278 1001.52 592.356 1011.33 568.708C1011.26 566.638 1011.53 564.569 1012.13 562.588C1012.45 561.379 1012.7 560.152 1012.88 558.915C1010.63 533.112 975.787 503.738 947.429 503.738C945.032 503.719 942.639 503.941 940.287 504.401C929.904 506.594 916.325 515.007 899.951 529.488C876.035 550.705 843.086 588.086 829.053 623.785C827.356 628.067 825.309 633.472 824.61 637.963C821.865 655.965 828.654 671.416 844.733 683.809C854.319 691.204 866.701 695.031 881.527 695.031V695.033ZM886.67 580.541C901.097 567.079 918.274 557.334 931.602 555.194C933.973 554.754 936.379 554.532 938.79 554.531C947.077 554.531 953.718 557.183 958.61 562.385C964.351 568.453 967.199 577.988 966.746 589.211C960.903 614.862 955.014 635.72 937.341 650.41C926.206 659.794 909.033 665.862 893.758 665.862C875.384 665.862 862.654 657.24 858.856 642.299C857.762 637.861 857.961 631.437 858.61 626.999C860.806 612.109 871.042 595.173 886.67 580.541ZM859.559 642.095C863.255 656.78 875.683 665.146 893.759 665.146C908.932 665.146 925.859 659.13 936.943 649.897C954.417 635.312 960.255 614.606 966.099 589.106C966.548 578.145 963.701 568.812 958.113 562.792C953.42 557.793 946.876 555.245 938.789 555.245C936.412 555.259 934.041 555.463 931.698 555.856C904.04 560.393 863.954 595.738 859.21 627.102C858.613 631.436 858.413 637.76 859.559 642.094V642.095ZM195.509 12.8854C179.381 20.8907 160.409 21.7058 144.684 15.1256C136.996 11.8891 130.236 6.78848 125.013 0.28441H125.813C130.873 6.54086 137.431 11.4177 144.878 14.4624C160.459 21.0426 179.28 20.2275 195.206 12.3215C200.398 9.77311 205.294 5.74129 209.988 0.28441H210.881C206.035 6.10206 200.894 10.2325 195.509 12.8854ZM767.399 40.8812C761.105 45.4178 755.114 50.2655 749.327 54.9029C735.299 66.1256 722.068 76.6325 707.486 81.63C691.166 89.9385 675.557 94.1023 660.657 94.1215C648.369 94.1482 636.257 91.1914 625.363 85.5048C592.51 68.6251 573.991 31.7562 566.899 0.28441H567.597C574.689 31.4977 593.006 68.1671 625.658 84.8956C650.073 97.439 677.534 96.1126 707.234 81.015C721.766 76.0702 734.946 65.5157 748.928 54.2937C754.715 49.7031 760.707 44.9095 767.046 40.3188C773.84 35.3732 780.88 30.5796 787.715 25.9889C800.097 17.5753 812.232 9.36554 822.914 0.28441H824.013C813.128 9.62189 800.747 17.9822 788.068 26.5521C781.228 31.1895 774.188 35.9327 767.399 40.8812ZM531.446 53.6809C527.004 64.6948 517.219 70.0523 501.545 70.0523C493.61 70.0523 485.374 68.674 478.728 67.5507H478.534C476.999 67.2976 475.445 67.1788 473.89 67.1957C467.647 67.1957 461.253 69.0809 455.119 70.9193C451.973 71.8857 448.625 72.8571 445.428 73.5203C442.829 74.1309 440.287 74.5904 437.738 75.1492C427.212 77.2432 416.275 79.4366 406.39 84.074C402.494 85.9124 398.505 87.6983 394.61 89.3797C375.336 97.897 355.414 106.717 342.49 123.856C341.683 124.927 340.992 125.998 340.236 127.068C331.207 140.735 323.359 155.42 315.878 169.65C307.382 185.713 298.606 202.189 288.014 217.281C277.783 232.018 264.002 248.29 250.675 264.046C246.024 269.556 241.69 274.757 237.441 279.859C216.273 305.457 196.308 329.579 159.458 329.579H159.408C149.969 329.579 139.989 328.049 128.757 324.988C96.8542 316.221 40.5359 294.287 21.2687 246.76C16.1711 234.164 12.7798 216.566 9.17987 198.006C6.43671 183.979 3.59271 169.446 -0.00738525 157.362V155.065C3.9455 167.608 6.94061 183.014 9.78461 197.85C13.4278 216.466 16.819 233.961 21.8663 246.505C41.0399 293.828 97.1495 315.557 128.902 324.325C140.09 327.438 150.077 328.916 159.408 328.916H159.458C195.955 328.916 215.878 304.899 236.894 279.399C241.135 274.297 245.534 269.095 250.171 263.638C263.455 247.884 277.236 231.564 287.517 216.926C298.001 201.881 306.785 185.306 315.273 169.347C322.812 155.117 330.653 140.38 339.689 126.708C340.387 125.637 341.186 124.468 341.985 123.444C355.018 106.211 374.983 97.3331 394.308 88.769C398.253 87.035 402.242 85.2492 406.087 83.4634C416.074 78.7734 427.01 76.58 437.594 74.4391C440.186 73.9271 442.735 73.4159 445.284 72.8549C448.423 72.1392 451.721 71.1735 454.917 70.2539C461.109 68.4155 467.496 66.4785 473.89 66.4785C475.475 66.4894 477.058 66.6097 478.627 66.8385L478.93 66.8853C485.467 68.008 493.661 69.3337 501.545 69.3337C516.873 69.3337 526.507 64.1324 530.805 53.4736C535.291 42.5072 533.794 23.8949 532.454 7.42416C532.253 4.92255 532.051 2.57791 531.9 0.28009H532.598C532.749 2.57791 532.901 4.92255 533.102 7.37159C534.442 23.8992 535.896 42.6152 531.446 53.6809ZM255.319 21.1938C235.497 48.6295 200.297 64.9504 161.208 64.9504C151.773 64.9801 142.364 63.9714 133.149 61.9426C98.3951 54.0885 87.2711 29.8681 82.3246 0.28441H82.9727C84.5207 9.6687 86.6735 18.4416 90.0143 26.3519C98.0495 45.3242 111.83 56.4367 133.25 61.283C142.431 63.3087 151.807 64.3174 161.208 64.2908C200.095 64.2908 235.044 48.0239 254.765 20.7899C256.961 14.978 258.811 7.93831 260.611 0.287291H261.31C259.748 7.35382 257.764 14.3205 255.37 21.1499L255.319 21.1938ZM444.83 35.5288C427.154 38.129 410.285 43.4822 394.056 48.6835C383.573 52.0521 372.694 55.5193 361.656 58.219C354.622 59.953 347.58 61.3312 341.337 62.2976C335.806 63.2008 330.216 63.6966 324.612 63.781C314.928 63.781 309.185 61.7407 307.382 57.6602C302.45 46.7983 298.649 23.1835 298.447 0.28441H299.095C299.297 23.0841 303.098 46.5426 307.937 57.4046C309.636 61.18 315.273 63.0652 324.612 63.0652C330.181 62.9984 335.737 62.5219 341.237 61.6394C347.479 60.668 354.463 59.2898 361.505 57.5558C372.535 54.8561 383.321 51.3882 393.811 48.0203C410.133 42.819 427.01 37.414 444.78 34.8137C462.254 32.2653 476.186 20.0244 484.373 0.28441H485.122C476.834 20.4312 462.65 32.8759 444.83 35.5288ZM55.4615 17.9304C56.3615 43.0228 57.1607 64.7474 73.4831 77.5463C90.4608 90.9625 120.117 94.7847 141.789 97.542C143.935 97.8451 146.081 98.1533 148.075 98.4061C151.932 98.922 155.819 99.1767 159.71 99.1687C181.778 99.1687 205.294 91.5702 228.06 84.2749C248.421 77.7991 269.438 71.0158 289.116 69.8464H289.166L289.217 69.8989C300.449 73.1631 303.242 85.3983 302.148 95.7504C298.951 136.191 285.019 169.289 253.915 210.03C247.68 218.192 241.783 226.505 236.145 234.563C226.454 248.125 217.375 261.029 206.741 273.165C190.814 291.475 170.841 300.655 147.326 300.655C120.067 300.655 89.4167 287.704 63.2015 265.01C36.1943 235.126 32.1479 195.551 30.3046 157.559C30.1535 154.598 30.1031 151.538 30.0023 148.227C29.5991 132.979 29.1599 113.954 21.8159 104.57C15.3719 96.3084 7.79022 89.932 -0.00738525 84.3239V83.5087C7.98468 89.222 15.7247 95.6452 22.3631 104.215C29.8007 113.698 30.2543 132.822 30.7007 148.175C30.8015 151.487 30.8519 154.598 31.0031 157.507C32.796 195.347 36.8422 234.869 63.6983 264.551C89.7623 287.09 120.218 300.047 147.326 300.047C170.64 300.047 190.512 290.813 206.237 272.761C216.828 260.572 225.965 247.773 235.591 234.106C241.236 226.1 247.126 217.839 253.368 209.623C284.371 168.979 298.303 135.933 301.442 95.6438C302.544 85.6489 299.901 73.7162 289.065 70.5513C269.546 71.7265 248.573 78.4054 228.254 84.9331C205.437 92.2284 181.879 99.8268 159.71 99.8268C155.786 99.8082 151.867 99.5518 147.974 99.0592C145.98 98.756 143.834 98.5004 141.681 98.2441C119.966 95.44 90.1655 91.5652 73.1374 78.1023C56.5126 65.0469 55.7136 43.2705 54.7631 17.9224C54.5687 12.6744 54.4174 7.21677 54.0718 1.75989C53.9907 1.26887 53.9378 0.773587 53.9135 0.276489H54.6191C54.6191 0.788477 54.6695 1.19533 54.6695 1.70732C55.0655 7.22469 55.2672 12.6297 55.4615 17.9304ZM16.0198 6.04878C15.2783 15.482 7.79022 23.8459 -0.00738525 23.8459V23.1316C7.48785 23.1316 14.6303 15.1263 15.3215 5.99765C15.5213 4.09925 15.5381 2.18604 15.3719 0.28441H16.0198C16.1962 2.20182 16.1962 4.13137 16.0198 6.04878ZM109.137 132.322C113.733 132.349 118.315 132.827 122.817 133.748C132.998 135.789 143.885 139.053 155.47 142.521C168.393 146.395 181.879 150.474 194.659 152.719C206.489 154.913 211.63 160.266 210.283 169.19V169.243C206.143 178.167 202.946 188.109 199.548 198.617C192.262 221.568 184.665 245.28 166.248 257.623C157.565 263.384 146.973 266.443 135.648 266.443C117.223 266.443 98.3951 258.588 85.1182 245.382C74.2391 234.467 66.2974 216.722 63.8566 197.902C61.2574 178.063 65.1526 159.247 74.5847 146.291C80.8775 137.674 94.1542 132.322 109.137 132.322ZM85.6151 244.873C98.7479 257.979 117.475 265.782 135.648 265.782C146.88 265.782 157.313 262.774 165.902 257.014C184.176 244.826 191.664 221.264 199.001 198.417C202.341 187.91 205.495 177.966 209.635 169.042C210.881 160.473 206.143 155.474 194.558 153.438C181.778 151.088 168.249 147.114 155.217 143.187C143.733 139.719 132.797 136.455 122.71 134.414C118.241 133.513 113.696 133.051 109.137 133.035C94.3559 133.035 81.3311 138.291 75.1391 146.753C54.6191 174.799 64.1015 223.402 85.6151 244.87V244.873ZM873.943 436.015C870.548 442.595 867.051 449.379 864.158 456.11C861.561 461.871 858.964 467.938 856.418 473.855C840.892 509.908 824.864 547.242 801.501 577.175C792.564 588.649 781.731 599.615 771.297 610.326C761.262 620.473 751.825 630.008 744.283 639.701C740.7 644.341 737.399 649.193 734.4 654.231C727.959 664.429 721.872 674.07 711.729 680.697L711.635 680.749L708.733 680.545C669.997 678.2 636.496 676.158 600.798 669.532C575.44 664.837 557.461 659.793 547.525 654.586C527.005 643.828 521.418 624.6 515.428 604.202C514.78 602.114 514.132 599.967 513.534 597.826C504.844 568.963 492.258 539.688 459.664 521.384L459.563 521.228C459.311 520.924 459.059 520.616 458.764 520.314C452.017 516.69 445.285 513.018 438.496 509.347C426.709 503.023 414.527 496.391 402.496 490.072C397.305 487.315 392.157 484.455 387.066 481.758C379.182 477.423 370.996 472.985 362.91 468.854C357.316 466.102 352.369 462.274 347.481 458.603C346.278 457.684 345.033 456.718 343.83 455.799C339.337 452.43 334.348 449.015 328.66 446.775C317.975 442.487 306.138 441.981 294.762 441.417C284.869 441.01 274.689 440.498 265.105 437.641C255.969 434.941 249.625 432.544 244.333 424.586C227.212 399.094 235.895 380.012 249.928 355.894C264.702 330.597 282.673 310.862 303.395 297.295C307.118 294.949 311.004 292.87 315.023 291.076C319.372 288.987 323.814 286.846 327.803 283.989C332.454 280.726 336.947 277.153 341.289 273.686C344.838 270.882 348.431 267.973 352.117 265.221C367.151 254.155 385.122 241.862 405.297 234.624C411.978 232.227 419.92 231.768 425.413 231.768C430.872 231.75 436.319 232.245 441.685 233.245C447.928 234.47 452.968 237.271 458.31 240.28C460.557 241.559 462.954 242.885 465.402 244.107C468.095 245.332 470.896 246.301 473.589 247.267C477.179 248.402 480.655 249.87 483.971 251.653C492.165 256.244 500.099 261.602 507.738 266.803C515.125 271.801 522.765 276.949 530.605 281.436C567.649 302.706 599.401 314.69 630.304 319.275C639.511 320.656 648.807 321.356 658.117 321.369C669.576 321.381 681.011 320.305 692.267 318.158C700.95 316.523 709.885 313.975 718.576 311.474C733.801 307.139 749.475 302.656 764.856 302.656C772.825 302.545 780.746 303.91 788.219 306.682C802.896 312.192 815.979 323.618 829.859 335.755C836.944 341.922 844.235 348.298 852.175 354.366C853.969 355.693 856.218 357.275 858.764 359.061C864.403 363.139 871.443 368.134 877.484 373.339C888.716 383.182 891.812 392.159 888.118 404.447C885.024 414.543 879.681 425 873.94 436.012L873.943 436.015ZM877.087 373.897C871.044 368.649 864.055 363.698 858.367 359.619C855.821 357.833 853.623 356.257 851.823 354.878C843.838 348.862 836.497 342.434 829.41 336.261C815.627 324.177 802.601 312.803 788.021 307.299C780.604 304.576 772.758 303.21 764.857 303.266C749.576 303.266 733.953 307.752 718.773 312.138C710.039 314.639 701.104 317.188 692.363 318.87C681.071 320.979 669.608 322.038 658.12 322.034C648.792 322.046 639.477 321.346 630.256 319.94C599.159 315.35 567.4 303.266 530.255 282.001C522.422 277.51 514.783 272.308 507.345 267.364C499.749 262.162 491.764 256.857 483.679 252.266C480.385 250.518 476.942 249.067 473.39 247.932C470.584 247.009 467.836 245.919 465.16 244.668C462.655 243.498 460.264 242.119 458.018 240.897C452.675 237.936 447.686 235.079 441.587 233.912C436.257 232.896 430.843 232.383 425.416 232.382C419.973 232.382 412.139 232.941 405.494 235.285C385.478 242.476 367.449 254.77 352.523 265.836C348.88 268.54 345.187 271.397 341.687 274.248C337.295 277.669 332.803 281.233 328.209 284.552C324.098 287.276 319.774 289.664 315.278 291.691C311.305 293.467 307.467 295.53 303.794 297.863C283.13 311.43 265.202 331.06 250.528 356.205C236.596 380.174 228.014 399.095 244.883 424.234C250.075 432.036 256.317 434.334 265.252 436.987C274.785 439.891 284.98 440.3 294.765 440.809C306.242 441.269 318.071 441.828 328.958 446.162C334.646 448.408 339.643 451.875 344.186 455.244C345.489 456.158 346.684 457.129 347.879 458.048C352.725 461.72 357.715 465.542 363.158 468.299C371.344 472.378 379.487 476.811 387.371 481.099C392.411 483.85 397.66 486.759 402.844 489.459C414.883 495.836 427.065 502.363 438.794 508.74C445.583 512.463 452.323 516.134 459.112 519.753L459.213 519.805C459.522 520.103 459.807 520.426 460.063 520.771C492.815 539.284 505.394 568.657 514.135 597.626C514.783 599.767 515.431 601.914 516.028 604.003C521.968 624.249 527.613 643.372 547.831 653.926C557.767 659.183 575.587 664.23 600.902 668.872C636.549 675.497 670.051 677.541 708.787 679.885L711.436 680.037C721.423 673.509 727.461 664.026 733.851 653.879C736.879 648.841 740.179 643.972 743.738 639.294C751.376 629.601 760.813 619.966 770.797 609.867C781.232 599.156 792.116 588.142 800.95 576.717C824.268 546.833 840.341 509.554 855.821 473.599C858.367 467.682 860.964 461.614 863.51 455.854C866.506 449.122 869.998 442.286 873.392 435.707C879.032 424.64 884.376 414.343 887.467 404.19C891.061 392.256 888.116 383.482 877.084 373.895L877.087 373.897ZM814.879 482.267L813.583 487.318C800.051 538.722 779.98 569.219 739.44 599.56L738.495 600.327C716.674 616.647 697.803 630.825 676.837 637.604C666.346 641.076 653.516 642.86 639.793 642.86H639.742C621.519 642.86 602.943 639.597 590.113 634.192C556.215 619.862 543.788 589.568 529.51 554.381C510.733 508.332 477.829 448.763 427.954 426.428C418.925 422.402 410.185 421.581 400.947 420.714C397.405 420.412 393.711 420.004 389.967 419.49C375.833 417.449 360.058 414.493 341.641 410.417C339.041 409.905 336.442 409.294 333.85 408.683C320.365 405.623 302.545 396.949 296.705 382.672C292.364 372.118 293.012 362.477 298.448 354.065C314.727 329.071 370.793 320.508 393.812 320.455H394.258C404.446 320.455 414.879 321.526 424.959 322.596C430.697 323.207 436.594 323.87 442.282 324.23C451.973 324.941 459.865 327.75 469.599 333.97C479.629 340.393 490.414 343.453 503.446 343.453C513.181 343.453 523.066 341.824 533.499 340.141C536.645 339.577 539.943 339.071 543.233 338.557C556.913 336.514 571.544 335.595 589.414 335.595C600.495 335.595 611.684 335.956 622.462 336.311C633.197 336.619 644.235 336.974 655.114 336.974C674.936 336.974 690.913 335.75 705.594 333.151C709.885 332.331 714.529 331.214 719.468 330.039C730.052 327.438 742.037 324.483 754.067 324.483C760.219 324.404 766.348 325.264 772.241 327.031C800.052 335.595 823.313 370.328 827.609 397.457C829.209 407.61 828.959 418.011 826.908 430.2C823.711 448.759 819.422 465.031 814.877 482.265L814.879 482.267ZM826.906 397.565C822.663 370.633 799.648 336.213 772.092 327.698C766.242 325.963 760.168 325.102 754.066 325.143C742.087 325.143 730.156 328.052 719.618 330.653C714.73 331.881 710.035 332.997 705.694 333.821C691.013 336.469 674.985 337.644 655.114 337.644C644.234 337.644 633.197 337.336 622.462 336.981C611.683 336.625 600.494 336.265 589.414 336.265C571.644 336.265 556.963 337.237 543.333 339.226C540.036 339.785 536.745 340.297 533.599 340.81C523.116 342.492 513.23 344.075 503.445 344.075C490.313 344.075 479.383 341.061 469.195 334.586C459.562 328.413 451.771 325.661 442.231 324.946C436.543 324.492 430.654 323.927 424.915 323.316C414.878 322.246 404.395 321.176 394.258 321.176H393.811C370.893 321.227 315.18 329.693 299.045 354.425C293.709 362.634 293.105 372.067 297.353 382.473C303.098 396.5 320.666 405.012 333.993 408.072C336.542 408.636 339.142 409.195 341.733 409.806C360.158 413.838 375.934 416.791 390.06 418.835C393.761 419.347 397.454 419.699 400.997 420.01C410.285 420.924 419.119 421.744 428.206 425.822C478.332 448.21 511.279 507.925 530.157 554.131C544.385 589.115 556.711 619.356 590.364 633.534C603.144 638.939 621.562 642.156 639.742 642.156H639.792C653.472 642.156 666.202 640.37 676.634 637.002C697.5 630.27 716.278 616.144 738.141 599.773L739.091 599.01C779.428 568.766 799.448 538.423 812.93 487.173L814.226 482.123C818.816 464.884 823.111 448.566 826.209 430.104C828.307 417.959 828.504 407.609 826.906 397.565ZM1047.83 65.87C1046.68 75.4574 1045.23 93.2545 1048.47 105.187C1053.87 124.875 1069.45 141.806 1084.47 158.229C1105.74 181.327 1127.71 205.251 1120.97 237.223C1117.32 254.457 1108.24 265.167 1093.01 270.014C1079.83 274.243 1063.6 273.686 1045.33 272.666C1011.98 270.776 989.366 276.389 976.232 281.486C962.955 286.688 950.772 295.257 938.891 303.618C923.013 314.788 907.988 325.395 891.011 327.741C884.763 328.69 878.39 328.429 872.239 326.974C856.36 323.402 844.375 315.245 831.698 306.576C810.13 291.938 787.865 276.742 744.63 285.562C735.142 287.453 725.71 290.356 715.72 293.369C683.867 303.004 650.919 312.9 614.077 292.956C580.777 275.875 559.804 244.511 539.586 214.164C530.154 200.038 520.369 185.354 509.583 172.502C495.752 156.079 476.924 133.591 453.812 141.394C444.531 144.454 434.948 145.984 425.653 147.462C410.929 149.859 395.752 152.308 382.071 161.076C372.287 167.353 364.698 176.278 357.311 184.946C353.862 188.973 350.269 193.156 346.525 197.03C338.238 205.548 331.549 215.595 325.055 225.283C319.511 233.544 313.823 242.014 307.134 249.612C298.148 257.717 290.264 264.807 281.077 273.274C269.989 283.625 259.851 295.918 250.067 307.746C231.303 330.545 213.628 352.014 190.508 358.949C174.186 363.895 157.309 363.231 135.788 356.907C124.311 353.492 109.134 346.912 98.449 341.914C75.8267 331.324 54.0311 319.051 33.2459 305.197C18.3047 295.06 6.72577 280.696 -0.0109253 263.942V262.157C6.55731 279.409 18.2737 294.222 33.5483 304.587C54.3389 318.427 76.1312 330.7 98.7443 341.304C109.379 346.249 124.506 352.881 135.94 356.249C157.41 362.521 174.135 363.185 190.307 358.338C213.224 351.455 230.85 330.033 249.57 307.337C259.355 295.509 269.492 283.165 280.674 272.814C289.861 264.297 297.702 257.158 306.687 249.1C313.326 241.601 318.963 233.089 324.508 224.874C330.995 215.188 337.791 205.144 346.028 196.57C349.823 192.695 353.365 188.512 356.807 184.434C364.201 175.765 371.84 166.791 381.719 160.516C395.507 151.644 410.778 149.194 425.56 146.85C434.84 145.32 444.431 143.79 453.567 140.729C477.126 132.822 496.199 155.466 510.08 172.041C520.916 184.998 530.651 199.583 540.133 213.756C560.358 244.102 581.223 275.414 614.322 292.344C650.97 312.183 683.816 302.287 715.568 292.704C725.556 289.692 734.993 286.84 744.527 284.897C787.968 276.085 810.384 291.279 832.049 306.016C844.682 314.638 856.614 322.748 872.441 326.315C878.496 327.733 884.766 327.976 890.912 327.031C907.688 324.785 922.716 314.231 938.539 303.008C950.374 294.695 962.705 286.026 976.033 280.824C989.166 275.727 1011.88 270.067 1045.38 271.952C1076.68 273.738 1112.23 275.775 1120.37 237.068C1126.96 205.456 1105.14 181.635 1084.02 158.636C1068.89 142.161 1053.27 125.178 1047.88 105.344C1044.73 93.9703 1045.73 77.5485 1047.13 65.7706C1049.43 46.8458 1054.86 27.4191 1060.66 6.91649C1061.26 4.72308 1061.86 2.52967 1062.5 0.28441H1063.2C1062.56 2.58224 1061.91 4.82749 1061.26 7.12028C1055.51 27.6228 1050.02 46.9502 1047.83 65.87Z" fill="black" fill-opacity="0.3"/>
</svg>
